<svg width="42" height="49" viewBox="0 0 42 49" fill="none" xmlns="http://www.w3.org/2000/svg">
<path fill-rule="evenodd" clip-rule="evenodd" d="M31.5626 29.4057H23.8844C23.3779 29.4057 22.8922 29.2336 22.5341 28.9273C22.176 28.621 21.9749 28.2055 21.9749 27.7724C21.9749 27.3392 22.176 26.9237 22.5341 26.6174C22.8922 26.3111 23.3779 26.139 23.8844 26.139H31.5626C32.069 26.139 32.5547 26.3111 32.9128 26.6174C33.2709 26.9237 33.4721 27.3392 33.4721 27.7724C33.4721 28.2055 33.2709 28.621 32.9128 28.9273C32.5547 29.2336 32.069 29.4057 31.5626 29.4057ZM31.5626 35.939H23.8844C23.3779 35.939 22.8922 35.7669 22.5341 35.4606C22.176 35.1543 21.9749 34.7389 21.9749 34.3057C21.9749 33.8725 22.176 33.4571 22.5341 33.1507C22.8922 32.8444 23.3779 32.6724 23.8844 32.6724H31.5626C32.069 32.6724 32.5547 32.8444 32.9128 33.1507C33.2709 33.4571 33.4721 33.8725 33.4721 34.3057C33.4721 34.7389 33.2709 35.1543 32.9128 35.4606C32.5547 35.7669 32.069 35.939 31.5626 35.939ZM6.71875 7.69301L0.403002 14.602C0.138144 14.8843 -0.00422468 15.2364 9.55037e-05 15.5983V47.3666C0.00287098 47.8007 0.20638 48.2161 0.566154 48.5221C0.925928 48.8282 1.41271 49 1.92012 49H40.08C40.3316 49.0012 40.5811 48.9598 40.8139 48.8782C41.0468 48.7967 41.2586 48.6766 41.437 48.5248C41.6154 48.373 41.757 48.1925 41.8537 47.9938C41.9503 47.795 42 47.5819 42 47.3666V15.582C41.9977 15.4778 41.985 15.374 41.9618 15.2717C41.9432 15.1636 41.9042 15.0587 41.8463 14.9613C41.8066 14.8696 41.7551 14.7819 41.6926 14.7C41.6544 14.6673 41.6353 14.6183 41.5971 14.5856L34.8784 7.23565C34.8113 7.16256 34.7341 7.09675 34.6483 7.03966V1.63333C34.6456 1.19932 34.4421 0.783896 34.0823 0.477842C33.7225 0.171789 33.2357 -6.49276e-06 32.7283 1.84017e-10H8.63781C8.13057 0.000209261 7.64404 0.172111 7.28447 0.478142C6.9249 0.784172 6.72152 1.19946 6.71875 1.63333V7.69301ZM10.5578 3.26666H30.8093V6.615H10.5578V3.26666ZM13.4374 45.7333H3.83918V16.1537L8.63781 10.9106L13.4374 16.1537V45.7333ZM12.5542 9.88167H32.4209L36.1645 13.965H16.2969L12.5542 9.88167ZM38.1609 45.7333H17.2765V17.2317H38.1609V45.7333Z" fill="#FEFEFE"/>
</svg>
